{"title":"Eminem - Space Bound","uid":7156571,"size":40726473,"categoryP":"video","categoryS":"music_videos","magnet":"?xt=urn:btih:b34b8250645e1e631827946bab7c8e4259565d2a&amp;dn=Eminem+-+Space+Bound&amp;tr=udp%3A%2F%2Ftracker.openbittorrent.com%3A80&amp;tr=udp%3A%2F%2Fopen.demonii.com%3A1337&amp;tr=udp%3A%2F%2Ftracker.coppersurfer.tk%3A6969&amp;tr=udp%3A%2F%2Fexodus.desync.com%3A6969","seeders":2,"leechers":0,"uploader":"BLOVES","files":9,"time":1333472216,"description":"Format : MPEG-4 \nFormat profile : Base Media / Version 2 \nCodec ID : mp42 \nFile size : 38.8 MiB \nDuration : 4mn 24s \nOverall bit rate mode : Variable \nOverall bit rate : 1 232 Kbps \nEncoded date : UTC 2011-06-22 23:39:56 \nTagged date : UTC 2011-06-22 23:39:56 \ngsst : 0 \ngstd : 264458 \ngssd : BBE3A8885HH1322940207751546 \ngshh :\n\nVideo \nID : 1 \nFormat : AVC \nFormat/Info : Advanced Video Codec \nFormat profile : &lt;a class=&quot;__cf_email__&quot; href=&quot;/cdn-cgi/l/email-protection&quot; data-cfemail=&quot;feb6979996beb2cdd0cf&quot;&gt;[email&amp;#160;protected]&lt;/a&gt;&lt;script cf-hash='f9e31' type=&quot;text/javascript&quot;&gt;\n/* &lt;![CDATA[ */!function(){try{var t=&quot;currentScript&quot;in document?document.currentScript:function(){for(var t=document.getElementsByTagName(&quot;script&quot;),e=t.length;e--;)if(t[e].getAttribute(&quot;cf-hash&quot;))return t[e]}();if(t&amp;&amp;t.previousSibling){var e,r,n,i,c=t.previousSibling,a=c.getAttribute(&quot;data-cfemail&quot;);if(a){for(e=&quot;&quot;,r=parseInt(a.substr(0,2),16),n=2;a.length-n;n+=2)i=parseInt(a.substr(n,2),16)^r,e+=String.fromCharCode(i);e=document.createTextNode(e),c.parentNode.replaceChild(e,c)}}}catch(u){}}();/* ]]&gt; */&lt;/script&gt; \nFormat settings, CABAC : Yes \nFormat settings, ReFrames : 1 frame \nCodec ID : avc1 \nCodec ID/Info : Advanced Video Coding \nDuration : 4mn 24s \nBit rate : 1 074 Kbps \nMaximum bit rate : 2 825 Kbps \nWidth : 1 280 pixels \nHeight : 720 pixels \nDisplay aspect ratio : 16:9 \nFrame rate mode : Variable \nFrame rate : 23.976 fps \nMinimum frame rate : 17.241 fps \nMaximum frame rate : 24.390 fps \nColor space : YUV \nChroma subsampling : 4:2:0 \nBit depth : 8 bits \nScan type : Progressive \nBits/(Pixel*Frame) : 0.049 \nStream size : 33.9 MiB (87%) \nTagged date : UTC 2011-06-22 23:39:58 \n\nAudio \nID : 2 \nFormat : AAC \nFormat/Info : Advanced Audio Codec \nFormat profile : LC \nCodec ID : 40 \nDuration : 4mn 24s \nBit rate mode : Variable \nBit rate : 152 Kbps \nMaximum bit rate : 182 Kbps \nChannel(s) : 2 channels \nChannel positions : Front: L R \nSampling rate : 44.1 KHz \nCompression mode : Lossy \nStream size : 4.79 MiB (12%) \n","torrent":{"xt":"urn:btih:b34b8250645e1e631827946bab7c8e4259565d2a","amp;dn":"Eminem+-+Space+Bound","amp;tr":["udp%3A%2F%2Ftracker.openbittorrent.com%3A80","udp%3A%2F%2Fopen.demonii.com%3A1337","udp%3A%2F%2Ftracker.coppersurfer.tk%3A6969","udp%3A%2F%2Fexodus.desync.com%3A6969"],"infoHash":"b34b8250645e1e631827946bab7c8e4259565d2a","infoHashBuffer":{"type":"Buffer","data":[179,75,130,80,100,94,30,99,24,39,148,107,171,124,142,66,89,86,93,42]},"announce":[],"urlList":[]}}